<?xml version="1.0" encoding="utf-8"?>
<!-- Generator: Adobe Illustrator 15.0.0, SVG Export Plug-In . SVG Version: 6.00 Build 0)  -->
<!DOCTYPE svg PUBLIC "-//W3C//DTD SVG 1.1//EN" "http://www.w3.org/Graphics/SVG/1.1/DTD/svg11.dtd">
<svg version="1.1" id="Layer_1" xmlns="http://www.w3.org/2000/svg" xmlns:xlink="http://www.w3.org/1999/xlink" x="0px" y="0px"
	 width="340.16px" height="109.13px" viewBox="0 0 340.16 109.13" enable-background="new 0 0 340.16 109.13" xml:space="preserve">
<g>
	<path fill="#010101" d="M14.619,16.318c0-3.032-0.292-5.179-0.874-6.437c-0.584-1.258-1.644-2.314-3.176-3.172
		C9.775,6.248,8.499,5.877,6.737,5.603C4.979,5.33,4.099,4.684,4.099,3.669c0-0.61,0.236-1.098,0.712-1.447
		c0.475-0.352,1.143-0.53,2-0.53c0.276,0,1.487,0.102,3.634,0.302c2.147,0.202,4.173,0.303,6.072,0.303
		c1.594,0,3.274-0.045,5.037-0.141c1.766-0.093,3.964-0.248,6.601-0.464c0.154,0,0.43-0.019,0.829-0.049
		c3.312-0.216,5.687-0.326,7.128-0.326c12.052,0,21.313,2.64,27.784,7.914c6.469,5.277,9.705,12.763,9.705,22.451
		c0,10.43-3.573,19.108-10.719,26.043c-7.148,6.933-16.196,10.394-27.146,10.394c-1.258,0-3.245-0.092-5.959-0.278
		s-4.808-0.278-6.28-0.278c-5.337,0-10.013,0.342-14.032,1.023c-0.459,0.093-0.72,0.142-0.781,0.142
		c-0.523,0-0.998-0.192-1.428-0.579c-0.427-0.382-0.644-0.82-0.644-1.311c0-0.951,0.875-1.843,2.624-2.673h0.046l1.702-0.834
		c1.288-0.705,2.215-1.702,2.784-2.989c0.566-1.288,0.85-3.023,0.85-5.195V16.318z M26.025,50.316c0,5.64,0.766,9.298,2.3,10.97
		c1.532,1.669,4.327,2.505,8.375,2.505c7.544,0,13.602-2.551,18.174-7.658c4.571-5.108,6.854-11.939,6.854-20.494
		c0-8.833-2.47-16.038-7.407-21.618C49.383,8.439,42.973,5.65,35.089,5.65c-3.621,0-6.035,0.53-7.248,1.586
		c-1.21,1.058-1.816,3.459-1.816,7.197V50.316z"/>
	<path fill="#010101" d="M92.4,44.894c-1.656,0-2.686,0.151-3.084,0.459c-0.4,0.311-0.599,1.018-0.599,2.125
		c0,4.005,1.396,7.562,4.187,10.669c2.79,3.113,6.149,4.665,10.075,4.665c2.792,0,5.498-0.819,8.121-2.465
		c2.621-1.646,4.086-2.465,4.392-2.465c0.339,0,0.591,0.098,0.759,0.297c0.169,0.196,0.254,0.544,0.254,1.036
		c0,1.807-2.065,3.905-6.19,6.297c-4.129,2.393-8.585,3.588-13.373,3.588c-5.126,0-9.384-1.834-12.776-5.503
		c-3.389-3.665-5.087-8.339-5.087-14.021c0-6.565,1.814-11.969,5.434-16.207c3.622-4.233,8.225-6.351,13.809-6.351
		c5.003,0,9.255,1.584,12.752,4.754c3.5,3.173,5.249,6.734,5.249,10.684c0,1.076-0.178,1.749-0.53,2.022
		c-0.351,0.274-1.386,0.417-3.098,0.417H92.4V44.894z M92.032,42.19h6.587c3.071,0,5.097-0.16,6.081-0.48
		c0.984-0.324,1.474-1.16,1.474-2.511c0-2.698-0.86-4.948-2.58-6.742c-1.722-1.794-3.869-2.695-6.449-2.695
		c-2.458,0-4.506,0.998-6.15,2.992c-1.642,1.994-2.463,4.452-2.463,7.365c0,0.832,0.238,1.382,0.714,1.66
		C89.722,42.054,90.651,42.19,92.032,42.19"/>
	<path fill="#010101" d="M129.872,17.241c0-3.16-0.175-5.353-0.529-6.578c-0.352-1.229-0.96-2.268-1.821-3.129
		c-0.892-0.89-2.353-1.535-4.382-1.93c-0.091,0-0.168-0.019-0.23-0.049h-0.092c-1.844-0.306-2.768-0.996-2.768-2.068
		c0-0.614,0.206-1.083,0.621-1.404c0.415-0.32,1.006-0.48,1.774-0.48c0.213,0,0.812,0.042,1.793,0.137
		c3.745,0.37,7.229,0.558,10.45,0.558c1.627,0,4.375-0.146,8.24-0.44c3.866-0.297,6.905-0.442,9.118-0.442
		c7.058,0,12.496,1.533,16.314,4.598c3.826,3.069,5.736,7.441,5.736,13.114c0,3.771-1.003,6.9-3.012,9.384
		c-2.014,2.487-5.086,4.414-9.226,5.795c0.548,0.274,1.069,0.7,1.556,1.266c0.491,0.568,1.054,1.464,1.696,2.696l9.536,17.634
		c1.41,2.516,2.582,4.182,3.516,4.996c0.939,0.811,2.035,1.215,3.293,1.215c0.365,0,0.822-0.024,1.379-0.086
		c0.545-0.063,0.898-0.092,1.053-0.092c0.461,0,0.795,0.097,1.01,0.298c0.219,0.198,0.328,0.541,0.328,1.031
		c0,1.16-1.057,2.262-3.152,3.298c-2.105,1.04-4.391,1.56-6.875,1.56c-2.821,0-5.427-1.231-7.823-3.7
		c-2.39-2.466-5.12-6.841-8.185-13.125l-0.506-1.104c-3.346-6.999-5.526-10.944-6.54-11.833c-0.675-0.585-1.441-0.997-2.303-1.245
		c-0.86-0.246-2.393-0.366-4.606-0.366c-1.563,0-2.617,0.229-3.149,0.69c-0.542,0.46-0.811,1.333-0.811,2.624v13.861
		c0,2.509,0.342,4.523,1.017,6.039c0.675,1.521,1.734,2.644,3.18,3.376c0.43,0.216,1.12,0.443,2.072,0.689
		c0.123,0.032,0.202,0.046,0.233,0.046l0.092,0.047c1.782,0.43,2.672,1.165,2.672,2.211c0,0.769-0.169,1.308-0.506,1.612
		c-0.338,0.306-0.92,0.46-1.75,0.46c-0.275,0-1.67-0.139-4.186-0.418c-2.521-0.278-4.898-0.42-7.137-0.42
		c-2.455,0-5.14,0.142-8.054,0.42c-2.917,0.279-4.542,0.418-4.879,0.418c-0.708,0-1.261-0.148-1.66-0.437
		c-0.397-0.292-0.598-0.7-0.598-1.224c0-0.61,0.154-1.104,0.46-1.474c0.306-0.366,1.012-0.797,2.118-1.287
		c0.153-0.091,0.43-0.236,0.828-0.438c0.397-0.195,0.705-0.355,0.92-0.479c1.32-0.828,2.278-1.959,2.877-3.398
		c0.596-1.438,0.896-3.262,0.896-5.467V17.241L129.872,17.241z M141.46,28.098c0,2.053,0.439,3.315,1.315,3.791
		c0.873,0.477,2.863,0.714,5.963,0.714c5.031,0,8.603-0.867,10.705-2.6c2.104-1.731,3.155-4.607,3.155-8.626
		c0-4.967-1.367-8.878-4.099-11.728c-2.732-2.852-6.491-4.279-11.283-4.279c-2.146,0-3.643,0.5-4.489,1.495
		c-0.843,0.997-1.267,3.013-1.267,6.048V28.098z"/>
	<path fill="#010101" d="M187.613,40.932c0-8.397,2.861-15.398,8.586-21.005c5.729-5.608,12.943-8.412,21.658-8.412
		c8.244,0,15.068,2.676,20.461,8.028c5.393,5.351,8.09,12.058,8.09,20.123c0,8.501-2.859,15.554-8.572,21.164
		c-5.713,5.603-13,8.41-21.865,8.41c-8.195,0-14.975-2.675-20.33-8.028C190.289,55.858,187.613,49.102,187.613,40.932
		 M197.67,37.283c0,8.427,1.865,15.246,5.609,20.458c3.738,5.213,8.643,7.82,14.715,7.82c5.66,0,10.146-1.915,13.449-5.744
		c3.303-3.828,4.957-9.075,4.957-15.731c0-8.505-1.916-15.445-5.746-20.824c-3.83-5.38-8.73-8.071-14.699-8.071
		c-5.736,0-10.221,1.95-13.447,5.838C199.279,24.926,197.67,30.343,197.67,37.283"/>
	<path fill="#010101" d="M254.762,63.302l-2.537-11.324c-0.078-0.308-0.146-0.598-0.213-0.88c-0.063-0.28-0.096-0.448-0.096-0.499
		c0-0.717,0.111-1.203,0.346-1.46c0.23-0.255,0.643-0.383,1.234-0.383c0.586,0,1.191,0.864,1.805,2.589
		c0.613,1.729,1.318,3.308,2.111,4.738c1.643,2.892,3.639,5.165,6.006,6.815c2.369,1.65,4.793,2.474,7.275,2.474
		c3.146,0,5.732-0.956,7.752-2.877c2.021-1.92,3.033-4.426,3.033-7.523c0-3.894-3.887-7.512-11.666-10.865l-1.23-0.536l-0.076-0.042
		c-10.314-4.399-15.473-9.99-15.473-16.773c0-4.224,1.469-7.779,4.398-10.671c2.93-2.894,6.625-4.34,11.082-4.34
		c2.277,0,4.645,0.448,7.105,1.347c2.459,0.896,4.018,1.344,4.684,1.344c0.742,0,1.441-0.175,2.094-0.517
		c0.652-0.347,1.059-0.521,1.211-0.521c0.514,0,0.879,0.128,1.098,0.384s0.324,0.704,0.324,1.344c0,0.279-0.027,0.723-0.076,1.322
		c-0.053,0.604-0.082,1.081-0.082,1.442c0,1.277,0.189,3.073,0.566,5.389c0.371,2.314,0.553,3.896,0.553,4.739
		c0,0.639-0.09,1.075-0.268,1.304c-0.178,0.228-0.486,0.346-0.926,0.346c-0.799,0-1.443-0.85-1.928-2.552
		c-0.486-1.697-1.184-3.315-2.086-4.853c-1.355-2.202-3.176-3.95-5.467-5.258c-2.287-1.303-4.688-1.957-7.197-1.957
		c-2.527,0-4.617,0.738-6.252,2.209c-1.639,1.47-2.457,3.307-2.457,5.506c0,2.146,0.779,3.972,2.34,5.47
		c1.564,1.496,4.451,3.05,8.676,4.659c0.457,0.18,1.176,0.451,2.15,0.806c5.145,1.975,8.543,3.756,10.178,5.344
		c1.541,1.483,2.713,3.265,3.518,5.339c0.807,2.072,1.207,4.354,1.207,6.839c0,5.297-1.592,9.588-4.775,12.865
		c-3.191,3.281-7.344,4.917-12.463,4.917c-2.102,0-4.49-0.436-7.164-1.313c-2.672-0.874-4.318-1.362-4.934-1.466
		c-0.104-0.026-0.234-0.05-0.408-0.076c-0.164-0.026-0.297-0.052-0.398-0.078c-1.357-0.153-2.188-0.987-2.496-2.499
		c-0.027-0.05-0.047-0.09-0.063-0.114C254.771,63.43,254.762,63.38,254.762,63.302"/>
	<path fill="#010101" d="M300.354,25.536c0-2.604-0.152-4.42-0.459-5.444c-0.307-1.021-0.854-1.904-1.648-2.644
		c-0.486-0.435-1.045-0.779-1.668-1.036c-0.629-0.257-1.518-0.461-2.664-0.618h-0.076c-1.615-0.28-2.42-0.86-2.42-1.738
		c0-0.512,0.18-0.918,0.539-1.211c0.354-0.298,0.857-0.449,1.494-0.449c0.102,0,0.463,0.026,1.078,0.078
		c4.01,0.384,8.184,0.577,12.502,0.577c4.475,0,9.182-0.097,14.121-0.289c4.938-0.191,7.645-0.288,8.133-0.288
		c1.457,0,2.348,0.17,2.664,0.502c0.32,0.335,0.482,1.094,0.482,2.276v1.637c0,1.874,0.021,3.833,0.072,5.882v0.805
		c0,0.641-0.088,1.064-0.264,1.271s-0.508,0.306-0.996,0.306c-0.838,0-1.316-0.608-1.434-1.828
		c-0.115-1.214-0.314-2.129-0.592-2.746c-0.795-1.638-2.176-2.791-4.146-3.458c-1.975-0.668-4.965-0.997-8.984-0.997
		c-2.385,0-4.037,0.33-4.975,0.997c-0.936,0.666-1.396,1.843-1.396,3.536v12.279c0,1.176,0.258,2.016,0.783,2.529
		c0.525,0.513,1.395,0.768,2.594,0.768h2.539c1.793,0,3.207-0.206,4.242-0.618c1.035-0.406,1.93-1.098,2.67-2.066
		c0.357-0.486,0.758-1.228,1.193-2.225c0.66-1.509,1.393-2.26,2.188-2.26c0.432,0,0.752,0.128,0.957,0.386
		c0.205,0.255,0.309,0.677,0.309,1.264c0,0.08-0.023,0.324-0.078,0.732c-0.154,1.742-0.23,3.498-0.23,5.265
		c0,2.818,0.166,5.764,0.496,8.837c0.08,0.77,0.117,1.231,0.117,1.384c0,0.514-0.117,0.892-0.344,1.132
		c-0.23,0.244-0.563,0.368-0.998,0.368c-0.838,0-1.363-0.692-1.566-2.078c-0.152-0.997-0.33-1.788-0.535-2.379
		c-0.59-1.537-1.449-2.604-2.576-3.206c-1.129-0.604-2.92-0.906-5.383-0.906h-3.076c-1.279,0-2.148,0.275-2.613,0.828
		c-0.463,0.554-0.688,1.748-0.688,3.592v12.237c0,3.258,0.404,5.287,1.229,6.079c0.818,0.795,2.504,1.193,5.064,1.193
		c2.609,0,5.188-0.417,7.736-1.247c2.547-0.837,4.625-1.944,6.236-3.33c1.133-0.921,2.119-2.092,2.963-3.501
		c0.848-1.409,1.512-2.114,2-2.114c0.334,0,0.605,0.142,0.805,0.44c0.215,0.293,0.311,0.675,0.311,1.138
		c0,1.025-0.291,2.411-0.885,4.155c-0.584,1.746-1.313,3.232-2.186,4.464c-1.076,1.537-2.447,2.668-4.127,3.385
		c-1.678,0.718-3.758,1.08-6.24,1.08c-1.07,0-3.248-0.115-6.525-0.352c-3.275-0.229-6-0.347-8.176-0.347
		c-2.66,0-5.381,0.118-8.156,0.347c-2.775,0.236-4.203,0.352-4.279,0.352c-0.592,0-1.051-0.124-1.381-0.366
		c-0.336-0.242-0.502-0.581-0.502-1.011c0-0.513,0.129-0.919,0.383-1.227c0.258-0.31,0.848-0.667,1.77-1.075
		c0.127-0.078,0.354-0.2,0.689-0.366c0.332-0.165,0.588-0.302,0.766-0.405c1.104-0.696,1.9-1.644,2.395-2.855
		c0.506-1.209,0.748-2.738,0.748-4.59V25.536L300.354,25.536z"/>
	<path fill="#010101" d="M106.708,101.521l0.329-7.449c0-0.076,0.005-0.271,0.015-0.585c0.009-0.314,0.014-0.588,0.014-0.815
		c0-1.23-0.095-2.164-0.287-2.802c-0.19-0.639-0.504-1.147-0.943-1.529c-0.247-0.209-0.581-0.377-1-0.501
		c-0.038-0.01-0.066-0.02-0.085-0.028c-0.276-0.066-0.448-0.14-0.515-0.222c-0.067-0.08-0.101-0.202-0.101-0.363
		c0-0.191,0.043-0.326,0.129-0.408c0.086-0.08,0.229-0.122,0.429-0.122c0.047,0,0.083,0.002,0.106,0.008
		c0.024,0.006,0.056,0.012,0.094,0.02c0.057,0.011,0.157,0.025,0.299,0.044c0.687,0.076,1.331,0.114,1.931,0.114
		c0.304,0,0.641-0.017,1.008-0.049c0.366-0.035,0.578-0.053,0.635-0.053c0.03,0,0.064-0.003,0.107-0.014
		c0.043-0.01,0.084-0.015,0.122-0.015c0.2,0,0.357,0.051,0.472,0.148c0.114,0.102,0.248,0.328,0.4,0.68l6.476,13.895
		c0.066,0.152,0.131,0.263,0.193,0.322c0.061,0.063,0.136,0.094,0.221,0.094c0.076,0,0.148-0.028,0.215-0.086
		c0.066-0.058,0.128-0.144,0.186-0.258l7.062-14.295c0.086-0.172,0.187-0.294,0.301-0.364c0.114-0.071,0.276-0.108,0.486-0.108
		c0.038,0,0.098,0.009,0.179,0.022c0.081,0.015,0.15,0.021,0.208,0.021c0.095,0.019,0.204,0.032,0.328,0.042
		c0.124,0.009,0.334,0.015,0.629,0.015c0.296,0,0.567-0.007,0.815-0.02c0.248-0.017,0.471-0.036,0.671-0.065
		c0.144-0.028,0.284-0.053,0.423-0.072c0.138-0.019,0.254-0.027,0.349-0.027c0.229,0,0.384,0.044,0.464,0.13
		c0.081,0.086,0.122,0.247,0.122,0.485c0,0.248-0.193,0.408-0.579,0.479c-0.387,0.072-0.76,0.208-1.123,0.408
		c-0.324,0.181-0.56,0.465-0.708,0.85c-0.148,0.387-0.221,0.932-0.221,1.636v0.26l0.314,11.735c0.019,0.923,0.109,1.604,0.271,2.037
		c0.162,0.435,0.435,0.793,0.815,1.078c0.162,0.124,0.332,0.224,0.507,0.295c0.177,0.071,0.383,0.115,0.622,0.135
		c0.02,0.01,0.039,0.016,0.058,0.016c0.344,0.086,0.514,0.258,0.514,0.515c0,0.256-0.049,0.428-0.149,0.515
		c-0.101,0.086-0.303,0.128-0.608,0.128c-0.076,0-0.493-0.033-1.251-0.101c-0.757-0.065-1.474-0.101-2.15-0.101
		c-0.686,0-1.407,0.038-2.159,0.114c-0.753,0.076-1.168,0.113-1.244,0.113c-0.248,0-0.426-0.044-0.536-0.136
		c-0.109-0.089-0.164-0.24-0.164-0.449c0-0.238,0.195-0.435,0.586-0.587c0.257-0.105,0.453-0.2,0.586-0.286
		c0.334-0.229,0.569-0.503,0.708-0.822c0.138-0.317,0.207-0.78,0.207-1.381v-0.609l-0.386-9.107
		c-0.009-0.199-0.038-0.366-0.085-0.499c-0.048-0.134-0.096-0.2-0.144-0.2c-0.066,0-0.149,0.066-0.25,0.2
		c-0.101,0.133-0.212,0.318-0.336,0.556l-6.175,12.495l-0.03,0.072c-0.19,0.41-0.41,0.613-0.656,0.613
		c-0.22,0-0.405-0.175-0.559-0.527c-0.028-0.067-0.056-0.124-0.086-0.172l-5.703-12.595l-0.043-0.086
		c-0.134-0.306-0.258-0.462-0.372-0.471c-0.067,0-0.122,0.064-0.165,0.192c-0.043,0.13-0.073,0.322-0.092,0.579l-0.258,7.263v0.543
		v0.713c0,0.964,0.105,1.687,0.315,2.167c0.21,0.482,0.562,0.85,1.058,1.107c0.152,0.066,0.4,0.14,0.743,0.216
		c0.029,0.01,0.053,0.014,0.072,0.014c0.324,0.048,0.536,0.122,0.636,0.224c0.1,0.1,0.149,0.25,0.149,0.45
		c0,0.189-0.045,0.321-0.135,0.392c-0.091,0.072-0.278,0.107-0.564,0.107c-0.154,0-0.401-0.014-0.744-0.042
		c-0.066,0-0.119-0.006-0.157-0.017c-0.038,0-0.095-0.004-0.171-0.014c-0.744-0.086-1.349-0.129-1.815-0.129
		c-0.524,0-1.187,0.047-1.988,0.142c-0.162,0.021-0.271,0.028-0.328,0.028c-0.048,0.01-0.111,0.016-0.187,0.016
		c-0.286,0.028-0.481,0.043-0.585,0.043c-0.105,0-0.203-0.061-0.294-0.179c-0.091-0.12-0.135-0.264-0.135-0.437
		c0-0.228,0.267-0.447,0.8-0.657l0.015-0.016c0.028-0.009,0.076-0.028,0.144-0.058c0.4-0.182,0.686-0.346,0.857-0.5
		c0.258-0.238,0.456-0.675,0.593-1.313C106.566,103.629,106.66,102.714,106.708,101.521"/>
	<path fill="#010101" d="M133.254,91.557c0-0.972-0.058-1.647-0.172-2.03c-0.114-0.381-0.319-0.709-0.615-0.985
		c-0.181-0.162-0.389-0.291-0.622-0.386c-0.233-0.096-0.563-0.173-0.993-0.229h-0.028c-0.6-0.104-0.901-0.318-0.901-0.643
		c0-0.189,0.066-0.341,0.2-0.45c0.134-0.11,0.319-0.165,0.557-0.165c0.038,0,0.171,0.009,0.4,0.03
		c1.497,0.141,3.05,0.214,4.661,0.214c1.668,0,3.421-0.037,5.26-0.107c1.839-0.071,2.849-0.105,3.031-0.105
		c0.544,0,0.874,0.061,0.994,0.184c0.119,0.124,0.178,0.404,0.178,0.843v0.615c0,0.696,0.01,1.424,0.027,2.187v0.301
		c0,0.238-0.032,0.395-0.099,0.472c-0.067,0.076-0.19,0.116-0.372,0.116c-0.314,0-0.493-0.228-0.536-0.681
		c-0.043-0.452-0.117-0.793-0.22-1.021c-0.297-0.61-0.811-1.039-1.545-1.287c-0.734-0.248-1.849-0.371-3.345-0.371
		c-0.887,0-1.504,0.123-1.852,0.371c-0.348,0.248-0.522,0.687-0.522,1.316v4.574c0,0.438,0.098,0.753,0.294,0.943
		c0.195,0.191,0.516,0.286,0.964,0.286h0.944c0.667,0,1.193-0.075,1.58-0.227c0.386-0.153,0.718-0.411,0.994-0.772
		c0.134-0.183,0.281-0.458,0.443-0.831c0.248-0.561,0.519-0.843,0.814-0.843c0.162,0,0.281,0.048,0.357,0.142
		c0.076,0.096,0.114,0.254,0.114,0.474c0,0.027-0.01,0.117-0.028,0.269c-0.058,0.648-0.086,1.303-0.086,1.961
		c0,1.047,0.063,2.144,0.187,3.288c0.028,0.285,0.042,0.457,0.042,0.514c0,0.19-0.042,0.331-0.128,0.422
		c-0.086,0.092-0.21,0.136-0.372,0.136c-0.315,0-0.51-0.258-0.586-0.772c-0.056-0.372-0.124-0.667-0.2-0.886
		c-0.22-0.572-0.539-0.969-0.958-1.193s-1.087-0.336-2.001-0.336h-1.144c-0.477,0-0.8,0.103-0.972,0.306
		c-0.172,0.206-0.258,0.65-0.258,1.337v4.561c0,1.212,0.152,1.964,0.458,2.259c0.305,0.296,0.934,0.442,1.888,0.442
		c0.972,0,1.932-0.154,2.879-0.464c0.949-0.311,1.723-0.723,2.325-1.237c0.417-0.344,0.784-0.777,1.1-1.302
		c0.314-0.524,0.562-0.786,0.743-0.786c0.124,0,0.224,0.056,0.3,0.164c0.077,0.11,0.115,0.25,0.115,0.422
		c0,0.381-0.11,0.896-0.33,1.544c-0.218,0.648-0.491,1.2-0.815,1.657c-0.399,0.573-0.911,0.992-1.537,1.258
		c-0.624,0.267-1.398,0.4-2.323,0.4c-0.4,0-1.21-0.042-2.43-0.128c-1.22-0.085-2.235-0.129-3.045-0.129
		c-0.992,0-2.003,0.044-3.038,0.129c-1.034,0.086-1.565,0.128-1.594,0.128c-0.219,0-0.391-0.044-0.515-0.135
		c-0.124-0.09-0.186-0.218-0.186-0.38c0-0.19,0.048-0.344,0.143-0.458c0.096-0.113,0.315-0.248,0.658-0.4
		c0.048-0.026,0.134-0.071,0.258-0.136c0.124-0.061,0.219-0.112,0.286-0.15c0.41-0.257,0.708-0.61,0.893-1.058
		c0.187-0.448,0.279-1.015,0.279-1.699V91.557z"/>
	<path fill="#010101" d="M155.455,89.771c0-0.6-0.103-0.974-0.306-1.121c-0.207-0.147-0.748-0.223-1.625-0.223
		c-1.476,0-2.51,0.114-3.101,0.345c-0.591,0.228-1.015,0.632-1.272,1.214c-0.182,0.39-0.348,0.873-0.501,1.443
		c-0.17,0.658-0.444,0.985-0.815,0.985c-0.162,0-0.28-0.051-0.356-0.155c-0.077-0.104-0.114-0.267-0.114-0.485
		c0.01-0.067,0.038-0.255,0.086-0.559c0.2-1.163,0.34-2.272,0.416-3.33c0.037-0.553,0.11-0.894,0.221-1.021
		c0.109-0.13,0.32-0.194,0.637-0.194c0.124,0,0.725,0.032,1.807,0.093c1.082,0.063,2.089,0.095,3.022,0.095h6.934
		c0.972,0,2.028-0.026,3.166-0.078c1.14-0.055,1.799-0.08,1.98-0.08c0.486,0,0.785,0.056,0.902,0.166
		c0.112,0.107,0.184,0.335,0.212,0.679l0.242,3.001v0.258c0,0.313-0.022,0.5-0.071,0.556c-0.047,0.058-0.162,0.086-0.343,0.086
		c-0.343,0-0.581-0.237-0.715-0.714c-0.104-0.372-0.219-0.681-0.342-0.929c-0.258-0.505-0.656-0.855-1.195-1.05
		c-0.538-0.196-1.464-0.294-2.78-0.294H161.3c-1.058,0-1.69,0.084-1.9,0.25c-0.21,0.168-0.314,0.555-0.314,1.165v13.08
		c0,0.81,0.12,1.439,0.364,1.888c0.242,0.448,0.65,0.794,1.224,1.043c0.169,0.065,0.448,0.139,0.827,0.215
		c0.031,0.01,0.054,0.014,0.073,0.014l0.042,0.017c0.629,0.142,0.943,0.381,0.943,0.714c0,0.209-0.064,0.363-0.192,0.466
		c-0.128,0.099-0.316,0.147-0.564,0.147c-0.134,0-0.666-0.042-1.594-0.128c-0.93-0.086-1.786-0.129-2.567-0.129
		c-0.81,0-1.744,0.047-2.802,0.142c-1.058,0.096-1.69,0.143-1.9,0.143c-0.258,0-0.459-0.053-0.608-0.164
		c-0.147-0.108-0.222-0.26-0.222-0.449c0-0.306,0.291-0.53,0.872-0.673h0.015c0.057-0.02,0.181-0.054,0.372-0.105
		c0.191-0.053,0.347-0.104,0.471-0.151c0.552-0.229,0.96-0.575,1.224-1.042c0.261-0.467,0.392-1.086,0.392-1.857L155.455,89.771
		L155.455,89.771z"/>
	<path fill="#010101" d="M170.695,91.557c0-0.972-0.059-1.647-0.171-2.03c-0.114-0.381-0.32-0.709-0.618-0.985
		c-0.181-0.162-0.388-0.291-0.62-0.386c-0.233-0.096-0.564-0.173-0.994-0.229h-0.028c-0.6-0.104-0.902-0.318-0.902-0.643
		c0-0.181,0.07-0.33,0.208-0.444c0.139-0.114,0.322-0.171,0.551-0.171c0.067,0,0.523,0.042,1.373,0.122
		c0.85,0.082,1.66,0.122,2.431,0.122c1.135,0,2.33-0.073,3.588-0.214c0.314-0.04,0.506-0.061,0.572-0.061
		c0.182,0,0.32,0.053,0.416,0.151c0.096,0.102,0.143,0.236,0.143,0.407c0,0.144-0.043,0.26-0.123,0.351
		c-0.082,0.09-0.264,0.187-0.549,0.292c-0.021,0.01-0.053,0.023-0.102,0.044c-0.381,0.152-0.672,0.314-0.872,0.486
		c-0.276,0.247-0.471,0.541-0.585,0.877c-0.117,0.341-0.173,0.923-0.173,1.753v0.27v3.304c0,0.276,0.076,0.494,0.229,0.649
		c0.148,0.158,0.371,0.236,0.656,0.236h8.193c0.275,0,0.492-0.078,0.65-0.236c0.156-0.155,0.234-0.373,0.234-0.649v-3.018
		c0-0.934-0.063-1.598-0.186-1.993c-0.123-0.395-0.336-0.736-0.643-1.022c-0.191-0.162-0.4-0.291-0.631-0.386
		c-0.229-0.095-0.547-0.173-0.955-0.229h-0.029c-0.6-0.104-0.902-0.318-0.902-0.643c0-0.181,0.068-0.33,0.209-0.444
		c0.137-0.114,0.322-0.171,0.549-0.171c0.068,0,0.521,0.042,1.367,0.122c0.844,0.082,1.646,0.122,2.408,0.122
		c1.135,0,2.33-0.073,3.588-0.214c0.316-0.04,0.506-0.061,0.572-0.061c0.182,0,0.318,0.053,0.416,0.151
		c0.096,0.102,0.141,0.236,0.141,0.407c0,0.144-0.039,0.26-0.121,0.351c-0.08,0.09-0.264,0.187-0.551,0.292
		c-0.018,0.01-0.061,0.028-0.127,0.058c-0.361,0.152-0.631,0.311-0.801,0.473c-0.295,0.257-0.504,0.562-0.621,0.915
		c-0.121,0.353-0.18,1.014-0.18,1.985v11.681c0,0.763,0.113,1.382,0.344,1.858s0.586,0.834,1.07,1.072
		c0.09,0.037,0.186,0.073,0.295,0.107c0.107,0.032,0.268,0.072,0.479,0.12l0.057,0.016c0.59,0.143,0.889,0.372,0.889,0.686
		c0,0.229-0.059,0.393-0.166,0.495c-0.107,0.099-0.287,0.147-0.535,0.147c-0.125,0-0.602-0.042-1.438-0.128
		c-0.834-0.085-1.605-0.129-2.309-0.129c-0.734,0-1.551,0.044-2.445,0.129c-0.896,0.086-1.414,0.128-1.561,0.128
		c-0.227,0-0.404-0.044-0.527-0.135c-0.123-0.09-0.184-0.219-0.184-0.381c0-0.189,0.047-0.343,0.141-0.457
		c0.098-0.114,0.316-0.248,0.658-0.4c0.049-0.026,0.135-0.071,0.26-0.136c0.123-0.061,0.219-0.112,0.285-0.15
		c0.41-0.257,0.709-0.61,0.9-1.058c0.189-0.448,0.285-1.015,0.285-1.699v-5.062c0-0.276-0.078-0.494-0.234-0.65
		c-0.158-0.158-0.375-0.236-0.65-0.236h-8.191c-0.286,0-0.508,0.078-0.658,0.236c-0.152,0.156-0.229,0.374-0.229,0.65v4.975
		c0,0.771,0.128,1.4,0.387,1.88c0.256,0.481,0.646,0.831,1.17,1.05c0.174,0.066,0.426,0.14,0.76,0.216
		c0.047,0.01,0.076,0.014,0.086,0.014c0.438,0.066,0.723,0.156,0.857,0.265c0.131,0.11,0.199,0.265,0.199,0.466
		c0,0.209-0.059,0.363-0.178,0.465c-0.119,0.1-0.305,0.148-0.553,0.148c-0.18,0-0.725-0.042-1.637-0.128
		c-0.908-0.085-1.723-0.129-2.436-0.129c-0.743,0-1.561,0.044-2.451,0.129c-0.894,0.086-1.416,0.128-1.566,0.128
		c-0.222,0-0.393-0.044-0.517-0.135c-0.124-0.09-0.185-0.219-0.185-0.381c0-0.189,0.048-0.343,0.142-0.457
		c0.096-0.114,0.316-0.248,0.658-0.4c0.048-0.026,0.133-0.071,0.257-0.136c0.125-0.062,0.22-0.112,0.287-0.15
		c0.41-0.257,0.708-0.61,0.893-1.058c0.187-0.448,0.28-1.015,0.28-1.7V91.557H170.695z"/>
	<path fill="#010101" d="M191.838,97.275c0-3.126,1.064-5.731,3.195-7.818c2.129-2.088,4.814-3.132,8.055-3.132
		c3.068,0,5.605,0.996,7.613,2.989c2.006,1.991,3.008,4.489,3.008,7.49c0,3.164-1.063,5.79-3.188,7.876s-4.838,3.132-8.135,3.132
		c-3.049,0-5.568-0.996-7.561-2.988C192.834,102.831,191.838,100.316,191.838,97.275 M195.582,95.919
		c0,3.135,0.695,5.671,2.088,7.612c1.391,1.938,3.217,2.908,5.477,2.908c2.105,0,3.773-0.712,5.002-2.136
		c1.23-1.426,1.844-3.378,1.844-5.855c0-3.164-0.711-5.748-2.137-7.748c-1.424-2-3.246-3.002-5.469-3.002
		c-2.135,0-3.801,0.724-5.004,2.174C196.184,91.32,195.582,93.336,195.582,95.919"/>
	<path fill="#010101" d="M217.813,91.271c0-0.943-0.092-1.609-0.271-2.001c-0.182-0.392-0.51-0.719-0.986-0.985
		c-0.248-0.144-0.646-0.259-1.195-0.344c-0.547-0.086-0.82-0.286-0.82-0.6c0-0.19,0.072-0.343,0.223-0.45
		c0.146-0.11,0.354-0.167,0.621-0.167c0.086,0,0.461,0.032,1.129,0.095c0.666,0.062,1.295,0.094,1.887,0.094
		c0.494,0,1.018-0.016,1.566-0.044c0.547-0.029,1.23-0.076,2.051-0.144c0.047,0,0.133-0.004,0.26-0.013
		c1.027-0.067,1.766-0.102,2.213-0.102c3.746,0,6.623,0.819,8.637,2.459c2.01,1.64,3.016,3.966,3.016,6.977
		c0,3.239-1.111,5.937-3.332,8.091c-2.219,2.153-5.031,3.23-8.434,3.23c-0.391,0-1.006-0.028-1.85-0.086
		c-0.844-0.057-1.496-0.085-1.953-0.085c-1.658,0-3.111,0.104-4.359,0.314c-0.143,0.027-0.225,0.044-0.244,0.044
		c-0.162,0-0.309-0.061-0.441-0.181c-0.133-0.118-0.199-0.255-0.199-0.408c0-0.295,0.27-0.571,0.813-0.829h0.016l0.527-0.255
		c0.4-0.223,0.691-0.529,0.865-0.931c0.18-0.4,0.266-0.939,0.266-1.616V91.271H217.813z M221.357,101.837
		c0,1.754,0.238,2.89,0.715,3.41c0.477,0.519,1.344,0.777,2.602,0.777c2.344,0,4.227-0.792,5.646-2.378
		c1.42-1.589,2.131-3.713,2.131-6.371c0-2.745-0.768-4.984-2.303-6.719c-1.533-1.735-3.523-2.602-5.975-2.602
		c-1.125,0-1.875,0.166-2.252,0.494c-0.375,0.329-0.564,1.074-0.564,2.237V101.837z"/>
</g>
</svg>
